<svg width="1274" height="688" viewBox="0 0 1274 688" fill="none" xmlns="http://www.w3.org/2000/svg">
<path d="M858 152.459C853.881 144.544 848.099 137.79 841.121 132.744C834.143 127.698 826.165 124.503 817.834 123.416C809.503 122.329 801.053 123.381 793.167 126.487C785.281 129.594 778.182 134.667 772.445 141.296C766.707 147.925 762.492 155.924 760.141 164.645C757.789 173.365 757.368 182.563 758.911 191.493C760.454 200.423 763.918 208.834 769.021 216.045C774.125 223.256 780.726 229.064 788.289 233L798.251 210.562C793.942 208.32 790.182 205.011 787.274 200.903C784.366 196.795 782.393 192.003 781.514 186.916C780.635 181.828 780.875 176.588 782.215 171.62C783.554 166.652 785.956 162.095 789.224 158.318C792.493 154.542 796.537 151.652 801.03 149.882C805.522 148.112 810.336 147.513 815.083 148.132C819.829 148.751 824.374 150.572 828.349 153.446C832.324 156.321 835.619 160.169 837.965 164.678L858 152.459Z" fill="#6070FF"/>
<path d="M235.38 653.04C237.857 649.612 239.605 645.555 240.481 641.196C241.357 636.837 241.338 632.299 240.424 627.951C239.511 623.602 237.729 619.565 235.223 616.165C232.717 612.766 229.557 610.1 226 608.383C222.442 606.667 218.587 605.948 214.745 606.285C210.904 606.622 207.185 608.005 203.89 610.323C200.594 612.641 197.815 615.828 195.776 619.626C193.738 623.424 192.498 627.726 192.157 632.185L202.671 633.272C202.866 630.732 203.572 628.281 204.733 626.117C205.895 623.953 207.478 622.137 209.356 620.817C211.233 619.496 213.352 618.708 215.54 618.516C217.728 618.324 219.925 618.734 221.952 619.712C223.978 620.69 225.778 622.209 227.206 624.145C228.634 626.082 229.649 628.382 230.169 630.86C230.69 633.337 230.701 635.922 230.201 638.405C229.702 640.888 228.707 643.2 227.296 645.153L235.38 653.04Z" fill="#EBEBFF"/>
<path d="M684 143.041L808.847 67.2824L832.207 97.1713L703.959 183.212L684 143.041Z" fill="#EBEBFF"/>
<rect width="176.828" height="35.052" transform="matrix(0.893923 0.44822 -0.348108 0.937454 641.202 556)" fill="#EBEBFF"/>
<rect width="60.209" height="12.3472" transform="matrix(0.969839 -0.243745 -0.182984 -0.983116 466.259 149.814)" fill="#6070FF"/>
<path d="M0 156.907L56.9826 88L71.9338 104.695L14.9512 173.602L0 156.907Z" fill="#EBEBFF"/>
<ellipse cx="754.5" cy="603" rx="12.5" ry="21" fill="#6070FF"/>
<ellipse cx="500.266" cy="157.253" rx="12.266" ry="14.2533" fill="#EBEBFF"/>
<path d="M1272.68 640.982C1272.68 666.449 1254.93 686.961 1233.18 686.961C1211.44 686.961 1193.69 666.449 1193.69 640.982C1193.69 615.516 1211.44 595.004 1233.18 595.004C1254.93 595.004 1272.68 615.516 1272.68 640.982Z" fill="white" stroke="#EBEBFF"/>
<path d="M360.732 10.1178C360.732 15.0486 357.306 18.9134 353.232 18.9134C349.158 18.9134 345.732 15.0486 345.732 10.1178C345.732 5.187 349.158 1.32214 353.232 1.32214C357.306 1.32214 360.732 5.187 360.732 10.1178Z" fill="white" stroke="#EBEBFF"/>
<path d="M42.883 445.154C42.883 437.485 37.5474 431.401 31.1171 431.401C24.6867 431.401 19.3511 437.485 19.3511 445.154C19.3511 452.823 24.6867 458.907 31.1171 458.907C37.5474 458.907 42.883 452.823 42.883 445.154Z" fill="white" stroke="#EBEBFF"/>
<path d="M42.8529 135C38.3831 147.165 37.4129 160.477 40.1556 172.008C42.8983 183.539 49.1292 192.343 57.4777 196.485C65.8261 200.627 75.6082 199.767 84.6721 194.094C93.7359 188.421 101.339 178.399 105.809 166.234L42.8529 135Z" fill="#6070FF"/>
<path d="M198.345 582C197.988 588.05 199.714 594.017 203.143 598.588C206.573 603.159 211.424 605.959 216.631 606.374C221.837 606.788 226.972 604.782 230.905 600.798C234.839 596.813 237.249 591.175 237.606 585.125L198.345 582Z" fill="#6070FF"/>
</svg>
