<svg width="1145" height="554" viewBox="0 0 1145 554" fill="none" xmlns="http://www.w3.org/2000/svg">
<path d="M489.241 137.986C485.195 130.736 479.514 124.548 472.659 119.926C465.803 115.304 457.966 112.377 449.782 111.381C441.597 110.385 433.295 111.349 425.548 114.195C417.802 117.04 410.827 121.688 405.191 127.76C399.554 133.833 395.413 141.161 393.103 149.15C390.793 157.139 390.379 165.564 391.895 173.745C393.411 181.925 396.813 189.63 401.828 196.236C406.842 202.842 413.326 208.163 420.756 211.768L430.543 191.214C426.31 189.16 422.616 186.128 419.759 182.365C416.903 178.602 414.964 174.212 414.101 169.552C413.237 164.891 413.473 160.091 414.789 155.54C416.105 150.989 418.464 146.814 421.675 143.354C424.886 139.895 428.86 137.247 433.273 135.626C437.686 134.005 442.416 133.456 447.079 134.023C451.741 134.59 456.206 136.258 460.112 138.891C464.017 141.525 467.254 145.049 469.559 149.18L489.241 137.986Z" fill="#6070FF"/>
<path d="M151.234 515.408C153.556 512.642 155.195 509.368 156.016 505.852C156.838 502.335 156.82 498.674 155.963 495.165C155.107 491.657 153.436 488.399 151.087 485.656C148.737 482.913 145.775 480.762 142.439 479.378C139.104 477.993 135.489 477.413 131.888 477.684C128.287 477.956 124.8 479.072 121.71 480.942C118.621 482.812 116.015 485.384 114.103 488.448C112.192 491.513 111.03 494.984 110.71 498.582L120.568 499.458C120.75 497.409 121.412 495.431 122.501 493.685C123.59 491.94 125.075 490.475 126.835 489.409C128.595 488.344 130.581 487.708 132.633 487.553C134.685 487.398 136.744 487.729 138.644 488.518C140.544 489.307 142.232 490.532 143.571 492.095C144.909 493.657 145.861 495.513 146.349 497.512C146.837 499.511 146.847 501.596 146.379 503.6C145.911 505.604 144.977 507.469 143.654 509.044L151.234 515.408Z" fill="#EBEBFF"/>
<rect x="366" y="129.733" width="109.465" height="19.6421" transform="rotate(-30 366 129.733)" fill="#EBEBFF"/>
<rect x="360.122" y="441" width="98.3613" height="15.4508" transform="rotate(23.34 360.122 441)" fill="#EBEBFF"/>
<rect width="56.0124" height="10.0203" transform="matrix(0.977401 -0.211395 -0.211395 -0.977401 209.118 122.635)" fill="#6070FF"/>
<rect x="24" y="163.432" width="72.7163" height="19.4403" transform="rotate(-46.1415 24 163.432)" fill="#EBEBFF"/>
<ellipse cx="433" cy="460" rx="15" ry="19" fill="#6070FF"/>
<path d="M254 132.5C254 138.851 248.851 144 242.5 144C236.149 144 231 138.851 231 132.5C231 126.149 236.149 119 242.5 119C248.851 119 254 126.149 254 132.5Z" fill="#EBEBFF"/>
<circle cx="1107.5" cy="516.5" r="37" fill="white" stroke="#EBEBFF"/>
<circle cx="282.5" cy="7.5" r="7" fill="white" stroke="#EBEBFF"/>
<path d="M63.8008 144C59.6102 153.815 58.4628 164.454 60.611 173.577C62.7592 182.7 68.027 189.558 75.2557 192.645C82.4843 195.731 91.0816 194.792 99.1562 190.034C107.231 185.276 114.121 177.089 118.312 167.274L63.8008 144Z" fill="#6070FF"/>
<path d="M129.261 461C128.926 465.881 130.545 470.695 133.76 474.383C136.975 478.071 141.524 480.331 146.405 480.666C151.286 481 156.1 479.381 159.788 476.166C163.476 472.951 165.736 468.403 166.07 463.521L129.261 461Z" fill="#6070FF"/>
</svg>
